<svg width="35" height="29" viewBox="0 0 35 29" fill="none" xmlns="http://www.w3.org/2000/svg">
<path d="M10.58 14.076C11.9293 14.628 12.972 15.5173 13.708 16.744C14.5053 17.9093 14.904 19.32 14.904 20.976C14.904 23.184 14.1987 24.9933 12.788 26.404C11.3773 27.8147 9.62933 28.52 7.544 28.52C5.336 28.52 3.52667 27.8147 2.116 26.404C0.705333 24.9933 0 23.184 0 20.976C0 19.872 0.122667 18.7987 0.368 17.756C0.674667 16.7133 1.22667 15.1493 2.024 13.064L6.9 0H14.26L10.58 14.076ZM30.084 14.076C31.4333 14.628 32.476 15.5173 33.212 16.744C34.0093 17.9093 34.408 19.32 34.408 20.976C34.408 23.184 33.7027 24.9933 32.292 26.404C30.8813 27.8147 29.1333 28.52 27.048 28.52C24.84 28.52 23.0307 27.8147 21.62 26.404C20.2093 24.9933 19.504 23.184 19.504 20.976C19.504 19.872 19.6267 18.7987 19.872 17.756C20.1787 16.7133 20.7307 15.1493 21.528 13.064L26.404 0H33.764L30.084 14.076Z" fill="#4324FF"/>
</svg>
