<svg width="320" height="74" viewBox="0 0 320 74" fill="none" xmlns="http://www.w3.org/2000/svg">
<path d="M40.3102 2V26.08H42.2702V33.76H37.9902V30H19.5102V2H23.9102V26H27.7102V2H32.1102V26H35.9102V2H40.3102ZM48.7064 8.44V23.56C48.7064 25.56 49.5864 26.32 50.9864 26.32C52.3864 26.32 53.2664 25.56 53.2664 23.56V8.44C53.2664 6.44 52.3864 5.68 50.9864 5.68C49.5864 5.68 48.7064 6.44 48.7064 8.44ZM44.3064 23.28V8.72C44.3064 4.24 46.6664 1.68 50.9864 1.68C55.3064 1.68 57.6664 4.24 57.6664 8.72V23.28C57.6664 27.76 55.3064 30.32 50.9864 30.32C46.6664 30.32 44.3064 27.76 44.3064 23.28ZM73.3767 2C77.9367 2 79.8967 4.12 79.8967 8.44V9.44C79.8967 12.32 79.0167 14.16 77.0567 15.08C79.4167 16 80.3367 18.12 80.3367 21.08V23.36C80.3367 27.68 78.0567 30 73.6567 30H66.7367V2H73.3767ZM73.0967 17.4H71.1367V26H73.6567C75.1367 26 75.9367 25.32 75.9367 23.24V20.8C75.9367 18.2 75.0967 17.4 73.0967 17.4ZM73.2567 6H71.1367V13.4H72.8567C74.4967 13.4 75.4967 12.68 75.4967 10.44V8.88C75.4967 6.88 74.8167 6 73.2567 6ZM91.1867 17.16L87.5067 30H82.9867V2H86.9067V19.72L88.5067 13.56L92.1067 2H96.9467V30H92.9867V10.28L91.1867 17.16ZM110.308 8.44V23.56C110.308 25.56 111.188 26.32 112.588 26.32C113.988 26.32 114.868 25.56 114.868 23.56V8.44C114.868 6.44 113.988 5.68 112.588 5.68C111.188 5.68 110.308 6.44 110.308 8.44ZM105.908 23.28V8.72C105.908 4.24 108.268 1.68 112.588 1.68C116.908 1.68 119.268 4.24 119.268 8.72V23.28C119.268 27.76 116.908 30.32 112.588 30.32C108.268 30.32 105.908 27.76 105.908 23.28ZM120.847 6V2H134.447V6H129.847V30H125.447V6H120.847ZM142.865 2C147.265 2 149.425 4.44 149.425 8.92V12.56C149.425 17.04 147.265 19.48 142.865 19.48H140.785V30H136.385V2H142.865ZM142.865 6H140.785V15.48H142.865C144.265 15.48 145.025 14.84 145.025 12.84V8.64C145.025 6.64 144.265 6 142.865 6ZM159.663 17.16L155.983 30H151.463V2H155.383V19.72L156.983 13.56L160.583 2H165.423V30H161.463V10.28L159.663 17.16ZM174.614 2L177.854 21.88L180.854 2H186.974V30H182.814V9.92L179.774 30H175.614L172.334 10.2V30H168.494V2H174.614ZM199.934 2L204.414 30H199.974L199.214 24.92H193.814L193.054 30H189.014L193.494 2H199.934ZM196.494 6.96L194.374 21.12H198.614L196.494 6.96ZM223.816 6V2H237.416V6H232.816V30H228.416V6H223.816ZM243.754 6V13.8H249.794V17.8H243.754V26H251.354V30H239.354V2H251.354V6H243.754Z" fill="#4324FF"/>
<path d="M266.931 2C271.491 2 273.451 4.12 273.451 8.44V9.44C273.451 12.32 272.571 14.16 270.611 15.08C272.971 16 273.891 18.12 273.891 21.08V23.36C273.891 27.68 271.611 30 267.211 30H260.291V2H266.931ZM266.651 17.4H264.691V26H267.211C268.691 26 269.491 25.32 269.491 23.24V20.8C269.491 18.2 268.651 17.4 266.651 17.4ZM266.811 6H264.691V13.4H266.411C268.051 13.4 269.051 12.68 269.051 10.44V8.88C269.051 6.88 268.371 6 266.811 6ZM276.541 30V2H280.941V30H276.541ZM301.239 33.76H296.879V30H287.479V33.76H283.199V26.08H284.919C285.679 25.12 285.919 24.08 285.999 22.44L286.999 2H299.319V26.08H301.239V33.76ZM291.119 6L290.319 22.36C290.199 24.48 289.799 25.4 289.079 26.08H294.839V6H291.119ZM52.0297 70V42H56.4297V66H61.4297V42H65.9097V66.08H67.8297V73.76H63.5497V70H52.0297ZM76.7128 70H70.2328V42H74.6328V52.52H76.7128C81.1128 52.52 83.2728 54.96 83.2728 59.44V63.08C83.2728 67.56 81.1128 70 76.7128 70ZM74.6328 66H76.7128C78.1128 66 78.8728 65.36 78.8728 63.36V59.16C78.8728 57.16 78.1128 56.52 76.7128 56.52H74.6328V66ZM89.9369 48.44V63.56C89.9369 65.56 90.8169 66.32 92.2169 66.32C93.6169 66.32 94.4969 65.56 94.4969 63.56V48.44C94.4969 46.44 93.6169 45.68 92.2169 45.68C90.8169 45.68 89.9369 46.44 89.9369 48.44ZM85.5369 63.28V48.72C85.5369 44.24 87.8969 41.68 92.2169 41.68C96.5369 41.68 98.8969 44.24 98.8969 48.72V63.28C98.8969 67.76 96.5369 70.32 92.2169 70.32C87.8969 70.32 85.5369 67.76 85.5369 63.28ZM106.196 70H101.796V42H113.396V46H106.196V70ZM120.406 48.44V63.56C120.406 65.56 121.286 66.32 122.686 66.32C124.086 66.32 124.966 65.56 124.966 63.56V48.44C124.966 46.44 124.086 45.68 122.686 45.68C121.286 45.68 120.406 46.44 120.406 48.44ZM116.006 63.28V48.72C116.006 44.24 118.366 41.68 122.686 41.68C127.006 41.68 129.366 44.24 129.366 48.72V63.28C129.366 67.76 127.006 70.32 122.686 70.32C118.366 70.32 116.006 67.76 116.006 63.28ZM142.836 58V70H138.436V42H142.836V54H147.836V42H152.316V70H147.836V58H142.836ZM165.266 42L169.746 70H165.306L164.546 64.92H159.146L158.386 70H154.346L158.826 42H165.266ZM161.826 46.96L159.706 61.12H163.946L161.826 46.96ZM178.435 42C182.995 42 184.955 44.12 184.955 48.44V49.44C184.955 52.32 184.075 54.16 182.115 55.08C184.475 56 185.395 58.12 185.395 61.08V63.36C185.395 67.68 183.115 70 178.715 70H171.795V42H178.435ZM178.155 57.4H176.195V66H178.715C180.195 66 180.995 65.32 180.995 63.24V60.8C180.995 58.2 180.155 57.4 178.155 57.4ZM178.315 46H176.195V53.4H177.915C179.555 53.4 180.555 52.68 180.555 50.44V48.88C180.555 46.88 179.875 46 178.315 46ZM197.005 42H201.405V70H197.005V58.72C196.045 59.76 194.445 60.28 193.245 60.28C189.645 60.28 187.765 57.68 187.765 53.84V42H192.165V53.48C192.165 55.36 193.325 56.24 194.725 56.24C196.125 56.24 197.005 55.24 197.005 53.36V42ZM214.407 42L218.887 70H214.447L213.687 64.92H208.287L207.527 70H203.487L207.967 42H214.407ZM210.967 46.96L208.847 61.12H213.087L210.967 46.96ZM225.336 58V70H220.936V42H225.336V54H230.336V42H234.816V70H230.336V58H225.336ZM242.406 58V70H238.006V42H242.406V54H247.406V42H251.886V70H247.406V58H242.406ZM258.757 70H254.277C254.717 68.96 254.757 67.96 254.757 66.6V62.28C254.757 59.36 255.477 57.24 257.677 56.32C255.717 55.4 254.797 53.52 254.797 50.64V48.44C254.797 44.12 256.757 42 261.317 42H267.957V70H263.557V58.6H262.037C260.037 58.6 259.157 59.56 259.157 62.16V66.56C259.157 68.84 258.997 69.28 258.757 70ZM263.557 46H261.437C259.877 46 259.197 46.88 259.197 48.88V51.64C259.197 53.88 260.197 54.6 261.837 54.6H263.557V46Z" fill="white"/>
<path d="M216.515 19.96V23.56C216.515 24.5733 216.315 25.28 215.915 25.68C215.488 26.08 214.928 26.28 214.235 26.28C213.542 26.28 212.995 26.08 212.595 25.68C212.168 25.28 211.955 24.5733 211.955 23.56V17.52H215.995V13.52H211.955V8.44C211.955 7.42667 212.168 6.72 212.595 6.32C212.995 5.89333 213.542 5.68 214.235 5.68C214.928 5.68 215.488 5.89333 215.915 6.32C216.315 6.72 216.515 7.42667 216.515 8.44V11.08H220.595V8.72C220.595 6.45333 220.062 4.72 218.995 3.52C217.902 2.29333 216.275 1.68 214.115 1.68C211.955 1.68 210.328 2.29333 209.235 3.52C208.115 4.72 207.555 6.45333 207.555 8.72V23.28C207.555 25.5467 208.115 27.2933 209.235 28.52C210.328 29.72 211.955 30.32 214.115 30.32C216.275 30.32 217.915 29.72 219.035 28.52C220.128 27.2933 220.675 25.5467 220.675 23.28V19.96H216.515Z" fill="#4324FF"/>
</svg>
